<svg xmlns="http://www.w3.org/2000/svg" width="680" height="180" viewBox="0 0 680 180" role="img" aria-labelledby="title"><title id="title">osTRIS wordmark</title><g fill="none" stroke="#173F3B" stroke-width="18" stroke-linecap="round" stroke-linejoin="round"><ellipse cx="65" cy="105" rx="42" ry="42"/><path d="M176 72c-14-13-52-11-52 10 0 27 61 11 61 42 0 25-45 29-68 8"/><path d="M231 28h105M284 28v112"/><path d="M377 140V28h53c57 0 57 70 0 70h-53m54 0 58 42"/><path d="M529 28v112"/><path d="M655 44c-21-24-79-21-79 12 0 41 90 18 90 62 0 35-69 42-100 10"/></g></svg>
